<?xml version="1.0" encoding="UTF-8"?>
<svg id="Feeder_Alma_Pro" xmlns="http://www.w3.org/2000/svg" version="1.1" viewBox="0 0 71.3 70.9">
  <defs>
    <style>
      .st0, .st1, .st2, .st3 {
        stroke: #000;
      }

      .st0, .st1, .st2, .st3, .st4 {
        stroke-miterlimit: 10;
      }

      .st0, .st1, .st3 {
        fill: none;
      }

      .st0, .st2 {
        stroke-width: .8px;
      }

      .st5 {
        fill: #0d181c;
      }

      .st1 {
        stroke-linecap: round;
        stroke-width: 2px;
      }

      .st6 {
        fill: #fff;
      }

      .st3 {
        fill-rule: evenodd;
      }

      .st4 {
        stroke: #fff;
        stroke-width: .5px;
      }
    </style>
  </defs>
  <path class="st0" d="M25.7,30.4c0,4.1,3.3,7.3,7.4,7.4,2.6,0,3.8-.8,5.1-2.1l-1.5-1.5c-.9.9-2.2,1.4-3.6,1.4-2.9,0-5.3-2.4-5.3-5.3h2.6l-3.5-3.8-3.3,3.8h2.1Z"/>
  <path class="st2" d="M40.4,30.8c0-4.1-3.3-7.6-7.4-7.4s-3.8.8-5.1,2.1l1.5,1.5c.9-.9,2.2-1.4,3.6-1.4,2.9,0,5.3,2.4,5.3,5.3h-2.6l3.5,3.8,3.3-3.8h-2.1Z"/>
  <path class="st3" d="M37.6,6.1c2.9-2,7.1.3,7.1,2.8s-.7,2.2-1.7,2.8c5.2,2.5,2.8,8-1.7,9h-15.8c-7.4,0-10.2-9.1-2.3-11.3-1.5-5.3,10.1-10.1,14.3-3.3h0Z"/>
  <path class="st5" d="M25.8,11.9l-.6,3.9c0,.3-.2.5-.4.5s-.3-.1-.3-.3,0,0,0-.2l.6-3.9h-1.6l-.6,3.7c0,.2,0,.4,0,.6,0,1.1.6,1.5,1.8,1.5s1.3-.2,1.7-.7c.4-.4.4-.9.5-1.5l.6-3.7h-1.6Z"/>
  <path class="st5" d="M30,14.9l.2-1.4c-.5,0-.9.3-1.2.7v-.6c0,0-1.3,0-1.3,0l-.6,4.1h1.5l.3-1.8c.1-.7.4-.9,1.1-.9h0Z"/>
  <path class="st5" d="M31.4,17.2c.2.4.5.6.9.6.9,0,1.7-1.2,1.7-2.9s-.4-1.4-1-1.4-.7.2-1,.6l.4-2.7h-1.5l-1,6.3h1.5v-.4ZM32.1,14.8c.2,0,.3.1.3.5,0,.8-.2,1.3-.5,1.3s-.3-.2-.3-.5c0-.7.2-1.3.5-1.3Z"/>
  <path class="st5" d="M36.8,13.6v.4c-.3-.4-.6-.6-.9-.6-.9,0-1.7,1.2-1.7,2.9s.4,1.4,1,1.4.7-.2,1-.6v.4c0,0,1.4,0,1.4,0l.6-4.1h-1.5ZM36,16.5c-.2,0-.3-.2-.3-.5,0-.7.3-1.3.5-1.3s.3.2.3.5c0,.7-.3,1.3-.5,1.3Z"/>
  <path class="st5" d="M41.2,13.6c-.4,0-.8.2-1,.5v-.4c0,0-1.3,0-1.3,0l-.6,4.1h1.5l.4-2.4c0-.3.1-.4.3-.4s.2,0,.2.2,0,0,0,.1l-.4,2.4h1.5l.4-2.6c0-.2,0-.4,0-.6,0-.6-.4-.9-1-.9Z"/>
  <path class="st1" d="M36.4,42.8l7.7-1.1"/>
  <path d="M36.7,45.1v10.1l-1.2.3-.3,12.1h-5.5l-.3-12.1-1.2-.3v-10.1h8.6M37.8,44.1h-10.7v11.9l.8.3.4.2.3,11.3v1h7.6v-1l.3-11.3.4-.2.8-.3v-11.9h.1-.1Z"/>
  <path class="st6" d="M28.4,41.1h8.1v3.8h-8.1s0-3.8,0-3.8Z"/>
  <path d="M36,41.6v2.7h-7.1v-2.7h7.1M37.1,40.5h-9.3v4.8h9.1v-4.8h.1ZM32.4,59.9c-1.3,0-2.3-1-2.3-2.3v-2.9h4.5v2.9c.1,1.4-1,2.3-2.2,2.3ZM34.6,53.5h-4.3c-.5,0-1-.4-1-1v-5.2c0-.5.4-1,1-1h4.3c.5,0,1,.4,1,1v5.2c.1.5-.3,1-1,1Z"/>
  <circle class="st4" cx="32.4" cy="57.7" r="1.2"/>
</svg>