<?xml version="1.0" encoding="UTF-8"?>
<svg id="Feeder_Alma_Pro" xmlns="http://www.w3.org/2000/svg" version="1.1" viewBox="0 0 71.3 70.9">
  <defs>
    <style>
      .st0, .st1, .st2, .st3 {
        stroke: #000;
        stroke-miterlimit: 10;
      }

      .st0, .st1, .st3 {
        fill: none;
      }

      .st1, .st2 {
        stroke-width: .8px;
      }

      .st4 {
        fill: #0d181c;
      }

      .st3 {
        fill-rule: evenodd;
      }
    </style>
  </defs>
  <path class="st0" d="M27.2,41.4h12.1v24.1h-12.1v-24.1Z"/>
  <rect x="29.1" y="43.6" width="8.4" height=".6"/>
  <rect class="st2" x="29.3" y="65.7" width=".8" height="2.2"/>
  <path class="st1" d="M39.3,52.5l4,1.7h2.1v7.4h-6"/>
  <path class="st1" d="M25.7,30.4c0,4.1,3.3,7.3,7.4,7.4,2.6,0,3.8-.8,5.1-2.1l-1.5-1.5c-.9.9-2.2,1.4-3.6,1.4-2.9,0-5.3-2.4-5.3-5.3h2.6l-3.5-3.8-3.3,3.8h2.1Z"/>
  <path class="st1" d="M40.4,30.8c0-4.1-3.3-7.6-7.4-7.4s-3.8.8-5.1,2.1l1.5,1.5c.9-.9,2.2-1.4,3.6-1.4,2.9,0,5.3,2.4,5.3,5.3h-2.6l3.5,3.8,3.3-3.8h-2.1Z"/>
  <rect class="st2" x="36.3" y="65.7" width=".8" height="2.2"/>
  <path class="st3" d="M37.6,6.1c2.9-2,7.1.3,7.1,2.8s-.7,2.2-1.7,2.8c5.2,2.5,2.8,8-1.7,9h-15.8c-7.4,0-10.2-9.1-2.3-11.3-1.5-5.3,10.1-10.1,14.3-3.3h0Z"/>
  <path class="st4" d="M25.8,11.9l-.6,3.9c0,.3-.2.5-.4.5s-.3-.1-.3-.3,0,0,0-.2l.6-3.9h-1.6l-.6,3.7c0,.2,0,.4,0,.6,0,1.1.6,1.5,1.8,1.5s1.3-.2,1.7-.7c.4-.4.4-.9.5-1.5l.6-3.7h-1.6Z"/>
  <path class="st4" d="M30,14.9l.2-1.4c-.5,0-.9.3-1.2.7v-.6c0,0-1.3,0-1.3,0l-.6,4.1h1.5l.3-1.8c.1-.7.4-.9,1.1-.9h0Z"/>
  <path class="st4" d="M31.4,17.2c.2.4.5.6.9.6.9,0,1.7-1.2,1.7-2.9s-.4-1.4-1-1.4-.7.2-1,.6l.4-2.7h-1.5l-1,6.3h1.5v-.4ZM32.1,14.8c.2,0,.3.1.3.5,0,.8-.2,1.3-.5,1.3s-.3-.2-.3-.5c0-.7.2-1.3.5-1.3Z"/>
  <path class="st4" d="M36.8,13.6v.4c-.3-.4-.6-.6-.9-.6-.9,0-1.7,1.2-1.7,2.9s.4,1.4,1,1.4.7-.2,1-.6v.4c0,0,1.4,0,1.4,0l.6-4.1h-1.5ZM36,16.5c-.2,0-.3-.2-.3-.5,0-.7.3-1.3.5-1.3s.3.2.3.5c0,.7-.3,1.3-.5,1.3Z"/>
  <path class="st4" d="M41.2,13.6c-.4,0-.8.2-1,.5v-.4c0,0-1.3,0-1.3,0l-.6,4.1h1.5l.4-2.4c0-.3.1-.4.3-.4s.2,0,.2.2,0,0,0,.1l-.4,2.4h1.5l.4-2.6c0-.2,0-.4,0-.6,0-.6-.4-.9-1-.9Z"/>
</svg>