<?xml version="1.0" encoding="UTF-8"?>
<svg id="Layer_2" xmlns="http://www.w3.org/2000/svg" version="1.1" viewBox="0 0 103.3 97.6">
  <defs>
    <style>
      .st0, .st1, .st2, .st3, .st4, .st5, .st6 {
        fill: none;
        stroke: #000;
        stroke-miterlimit: 10;
      }

      .st1 {
        stroke-width: .8px;
      }

      .st2 {
        stroke-width: 2.8px;
      }

      .st3 {
        stroke-width: 4.3px;
      }

      .st4 {
        stroke-width: 1.8px;
      }

      .st5 {
        stroke-width: 1.5px;
      }

      .st6 {
        stroke-width: 2.1px;
      }
    </style>
  </defs>
  <path id="path1" class="st4" d="M77.9,45.5c4.3.2,7.8,3.7,8,8.2,0,1.1-.6,2.7-2.1,2.7h-1.5c-.2,0-.4.3-.3.5.5,1.1,1.7,4.4,2.1,9,.6,5.7-.3,13.7-.3,13.7,0,1.1-.9,2.1-2,2.1h-8.9c-.4,0-.8-.4-.8-.8v-.9c0-.8,3.9-2.5,3.9-2.5.1-.1.2-.3.1-.4l-.7-14.1c0-.4-.1-.7-.3-1l-2.1-4.8c-.2-.4-.6-.8-1.1-.8h-7.3c-1.3,0-2.5-1.1-2.5-2.5v-7.2c0-.9.6-1.7,1.7-1.7h4.1c.4,0,5.5.2,10.2.5h0Z"/>
  <path id="path2" class="st6" d="M66.7,45.2v10.8"/>
  <path id="path3" class="st4" d="M75.9,77.3h8"/>
  <path id="path4" class="st2" d="M34.9,13.1v18.9M39.6,13.1v18.9"/>
  <path id="path5" class="st3" d="M45.3,13.1v18.9"/>
  <path id="path6" class="st4" d="M68.8,30.7v3.9h-3.8M68.8,14.1v-3.9h-3.8M29.6,30.7v3.9h3.8M29.6,14.1v-3.9h3.8"/>
  <path id="Außen" class="st4" d="M53.8,59.1c-2.3-1.8-3.9-4.8-3.7-8.2,0-3.3,1.7-6.2,4-8"/>
  <path id="Mitte" class="st4" d="M55.9,56.6c-1.7-1.2-2.8-3.2-2.7-5.6,0-2.3,1.2-4.4,2.9-5.5"/>
  <path id="path7" class="st4" d="M57.8,54.1c-1.1-.7-1.6-1.8-1.6-3s.7-2.3,1.7-2.8"/>
  <path id="path8" class="st3" d="M56.8,13.1v18.9"/>
  <path id="path9" class="st2" d="M51,13.1v18.9M62.5,13.1v18.9"/>
  <path id="path10" class="st4" d="M75.1,63.4s-.2.1-.4.2c-.9.4-2.4-.8-3.2-2.7-.8-1.9-.7-3.8.2-4.2.2-.1.7-.3.7-.3"/>
  <rect class="st4" x="15.9" y="41.5" width="21.5" height="40" rx="3" ry="3" transform="translate(53.2 123) rotate(-180)"/>
  <path id="path41" data-name="path4" class="st0" d="M21,56.8v7.9M23,56.8v7.9"/>
  <path id="path51" data-name="path5" class="st5" d="M25.3,56.8v7.9"/>
  <polyline class="st1" points="18.6 58.5 18.6 55.5 21.5 55.5"/>
  <path id="path81" data-name="path8" class="st5" d="M30.1,56.8v7.9"/>
  <path id="path91" data-name="path9" class="st0" d="M27.7,56.8v7.9M32.5,56.8v7.9"/>
  <polyline class="st1" points="34.9 63 34.9 66.1 31.9 66.1"/>
  <polyline class="st1" points="31.8 55.5 34.9 55.5 34.9 58.5"/>
  <polyline class="st1" points="21.6 66.2 18.5 66.2 18.5 63.2"/>
</svg>