<?xml version="1.0" encoding="UTF-8"?>
<svg xmlns="http://www.w3.org/2000/svg" version="1.1" viewBox="0 0 55.9 52.6">
  <defs>
    <style>
      .st0 {
        stroke-width: .8px;
      }

      .st0, .st1, .st2 {
        stroke: #000;
        stroke-miterlimit: 10;
      }

      .st0, .st2 {
        fill: none;
      }

      .st3 {
        fill: #0d181c;
      }

      .st1 {
        fill: #fff;
      }

      .st2 {
        fill-rule: evenodd;
      }
    </style>
  </defs>
  <g id="Layer_1">
    <path class="st2" d="M36.1,12.4c4.4-3.3,10.9.6,10.9,4.6s-1,3.7-2.6,4.8c7.9,4.2,4.3,13.6-2.6,15.1h-24.1c-11.3,0-15.5-15.3-3.4-19-2.3-9,15.4-17.1,21.8-5.5h0Z"/>
  </g>
  <g id="Ebene_3">
    <path class="st3" d="M22.6,16.1l-.7,4.2c0,.4-.2.5-.5.5s-.3-.1-.3-.3,0,0,0-.2l.7-4.2h-1.8l-.6,4.1c0,.2,0,.5,0,.7,0,1.2.6,1.7,2,1.7s1.5-.2,1.9-.7c.4-.5.5-1,.6-1.7l.6-4.1h-1.8Z"/>
    <path class="st3" d="M27.2,19.4l.2-1.6c-.5,0-1,.3-1.3.7v-.6c0,0-1.4,0-1.4,0l-.7,4.4h1.6l.3-2c.1-.7.4-1,1.2-1h0Z"/>
    <path class="st3" d="M28.8,21.9c.2.4.5.6,1,.6,1,0,1.9-1.3,1.9-3.1s-.4-1.5-1.1-1.5-.8.2-1.1.6l.5-3h-1.6l-1.1,6.9h1.6v-.5ZM29.6,19.2c.2,0,.3.2.3.5,0,.8-.3,1.4-.6,1.4s-.3-.2-.3-.5c0-.8.3-1.4.6-1.4Z"/>
    <path class="st3" d="M34.7,18v.5c-.3-.4-.6-.6-1-.6-1,0-1.9,1.3-1.9,3.1s.4,1.5,1.1,1.5.8-.2,1.1-.6v.5c0,0,1.5,0,1.5,0l.7-4.4h-1.6ZM33.8,21.2c-.2,0-.3-.2-.3-.5,0-.8.3-1.4.6-1.4s.3.2.3.5c0,.8-.3,1.4-.6,1.4Z"/>
    <path class="st3" d="M39.5,17.9c-.4,0-.8.2-1.1.5v-.5c0,0-1.4,0-1.4,0l-.7,4.4h1.6l.4-2.6c0-.3.2-.4.3-.4s.3,0,.3.3,0,0,0,.2l-.4,2.6h1.6l.5-2.9c0-.2,0-.4,0-.6,0-.6-.4-1-1.1-1Z"/>
  </g>
  <g id="Ebene_2">
    <circle class="st1" cx="35.8" cy="36.3" r="10.9"/>
    <path class="st0" d="M29.2,35.9c0,3.6,2.9,6.5,6.6,6.6s3.3-.7,4.5-1.8l-1.4-1.3c-.8.8-2,1.2-3.2,1.2-2.6,0-4.7-2.1-4.7-4.7h2.3l-3.1-3.3-3,3.3h1.9Z"/>
    <path class="st0" d="M42.3,36.4c0-3.6-2.9-6.8-6.6-6.6s-3.3.7-4.5,1.8l1.4,1.3c.8-.8,2-1.2,3.2-1.2,2.6,0,4.7,2.1,4.7,4.7h-2.3l3.1,3.3,3-3.3h-1.9Z"/>
  </g>
</svg>